<?xml version="1.0" encoding="utf-8"?>
<!-- Generator: Adobe Illustrator 24.1.2, SVG Export Plug-In . SVG Version: 6.00 Build 0)  -->
<svg version="1.1" xmlns="http://www.w3.org/2000/svg" xmlns:xlink="http://www.w3.org/1999/xlink" x="0px" y="0px"
	 viewBox="0 0 113.86024 97.09747" style="enable-background:new 0 0 113.86024 97.09747;" xml:space="preserve">
<g id="base-size">
</g>
<g id="icons">
	<path style="fill:#173042;" d="M57.55331,39.0712l2.3794,0.6797c1.0288,0.2944,1.8467,1.0752,2.1875,2.0894
		c0.3413,1.0136,0.1616,2.1303-0.4804,2.9858l-0.6563,0.875c-0.6113,0.8145-1.583,1.3003-2.6001,1.3003h-2
		c-0.4136,0-0.75,0.3364-0.75,0.75v3.3589c0,0.1572,0.0483,0.3081,0.1401,0.4365l4.0289,5.6406
		c0.1406,0.1963,0.3686,0.314,0.6103,0.314h1.3018c0.3623,0,0.6728-0.2593,0.7382-0.6162l1.5157-8.3403
		c0.1889-1.0352,0.8706-1.919,1.8232-2.3638l5.6997-2.6597c-1.97279-5.6974-7.062-9.9313-13.2371-10.6516l-1.2258,5.3118
		C56.93911,38.5707,57.16951,38.9618,57.55331,39.0712z M64.88341,30.7514c0.8284,0,1.5-0.6715,1.5-1.5c0-0.8285-0.6716-1.5-1.5-1.5
		s-1.5,0.6715-1.5,1.5C63.3834,30.0799,64.05501,30.7514,64.88341,30.7514z M38.7872,33.6472
		c0.9984,0.4005,1.4728,0.875,1.8734,1.8734c0.1134,0.2827,0.524,0.2827,0.6374,0c0.4006-0.9984,0.875-1.4729,1.8734-1.8734
		c0.2827-0.1135,0.2827-0.5241,0-0.6374c-0.9984-0.4006-1.4728-0.875-1.8734-1.8734c-0.1134-0.2828-0.524-0.2828-0.6374,0
		c-0.4006,0.9984-0.875,1.4728-1.8734,1.8734C38.50451,33.1231,38.50451,33.5337,38.7872,33.6472z M66.84921,48.4467
		c-0.2202,0.1026-0.3774,0.3067-0.4209,0.5459l-1.5161,8.3403c-0.2822,1.5464-1.6269,2.6685-3.1977,2.6685h-1.3018
		c-1.0469,0-2.0356-0.5088-2.6445-1.3604l-4.0293-5.6416c-0.396-0.5551-0.6055-1.208-0.6055-1.8891v-3.3589
		c0-1.792,1.458-3.25,3.25-3.25h2c0.2349,0,0.4595-0.1123,0.6006-0.3003l0.6558-0.8745c0.2133-0.2852,0.1489-0.5772,0.1108-0.6895
		c-0.0376-0.1123-0.1626-0.3842-0.5049-0.4824l-2.3789-0.6792c-1.6641-0.4756-2.6631-2.1694-2.2744-3.8559l1.1157-4.8341
		c-6.1434,0.257-11.3817,3.9668-13.8321,9.2497l4.6129,2.9266c1.0991,0.6978,1.7446,1.8907,1.727,3.1915l-0.0683,5.0722
		c-0.0049,0.3277,0.1255,0.648,0.3569,0.8794l2.8843,2.8843c0.3779,0.3774,0.6645,0.8227,0.8525,1.3237l2.3762,6.3361
		c0.5805,0.0637,1.1684,0.1024,1.7659,0.1024c8.83661,0,16-7.1635,16-16c0-0.9458-0.098-1.8672-0.2554-2.7679L66.84921,48.4467z
		 M75.61561,31.5191c-0.8925-0.8925-2.3396-0.8925-3.2322,0c-0.8925,0.8926-0.8925,2.3397,0,3.2323
		c0.8926,0.8926,2.3397,0.8926,3.2322,0C76.5082,33.8588,76.5082,32.4117,75.61561,31.5191z M43.1272,62.9434
		c-1.206-0.4839-1.779-1.0569-2.2629-2.2629c-0.137-0.3416-0.633-0.3416-0.77,0c-0.4839,1.206-1.057,1.779-2.263,2.2629
		c-0.3415,0.1371-0.3415,0.6331,0,0.77c1.206,0.4839,1.7791,1.0569,2.263,2.263c0.137,0.3415,0.633,0.3415,0.77,0
		c0.4839-1.2061,1.0569-1.7791,2.2629-2.263C43.46881,63.5765,43.46881,63.0805,43.1272,62.9434z M49.6212,58.7568l-2.8843-2.8843
		c-0.706-0.7061-1.103-1.6831-1.0893-2.6812l0.0683-5.0717c0.0059-0.4268-0.2055-0.8179-0.5664-1.0464l-4.16-2.6395
		c-0.3851,1.3753-0.6061,2.8194-0.6061,4.3177c0,7.2158,4.7786,13.3114,11.3424,15.3065l-1.8248-4.8666
		C49.8395,59.0273,49.7452,58.8808,49.6212,58.7568z"/>
</g>
<g id="title">
</g>
</svg>
