<?xml version="1.0" encoding="utf-8"?>
<!-- Generator: Adobe Illustrator 24.1.2, SVG Export Plug-In . SVG Version: 6.00 Build 0)  -->
<svg version="1.1" xmlns="http://www.w3.org/2000/svg" xmlns:xlink="http://www.w3.org/1999/xlink" x="0px" y="0px"
	 viewBox="0 0 113.86024 97.09747" style="enable-background:new 0 0 113.86024 97.09747;" xml:space="preserve">
<g id="base-size">
</g>
<g id="icons">
	<path style="fill:#173042;" d="M54.87922,35.27077c2.131,0.5805,4.329-0.6767,4.9094-2.808
		c0.5804-2.1312-0.6766-4.3294-2.8076-4.91c-2.131-0.5805-4.329,0.6767-4.9094,2.808
		C51.49122,32.49197,52.74832,34.69037,54.87922,35.27077z M37.82392,47.22387c0.4353-1.5981-0.5074-3.2467-2.1057-3.682
		c-1.5982-0.4352-3.2467,0.5075-3.6819,2.1057c-0.4353,1.5983,0.5074,3.2467,2.1056,3.682
		C35.74022,49.76487,37.38862,48.82207,37.82392,47.22387z M73.35682,41.26297c-1.4904-2.5564-6.3667-1.7643-11.5739,0.1227
		c-4.0491-2.3831-9.222-2.5983-13.5925-0.0988c-4.3087,2.4641-6.7347,6.9386-6.8023,11.5663
		c-3.2325,2.6051-5.6773,5.2306-6.2485,7.3287c-0.3145,1.1538-0.0425,1.9766,0.2407,2.4634c0.6704,1.1504,2.0263,1.6236,3.79,1.6236
		c4.9863-0.0005,13.231-3.7798,18.438-6.7046c7.1816-4.0332,14.9111-9.8765,15.9898-13.8379
		C73.91202,42.57257,73.64001,41.74977,73.35682,41.26297z M37.99412,61.12917c-0.0026-0.7284,1.275-2.4653,3.8195-4.7179
		c0.2954,1.1442,0.7315,2.2704,1.3464,3.3456c0.139,0.243,0.2903,0.4739,0.4441,0.7024
		C40.58372,61.34537,38.58772,61.49747,37.99412,61.12917z M50.96042,46.13067c-2.3179,1.3257-3.8096,3.7104-3.9898,6.3789
		c-0.0444,0.6601-0.5937,1.166-1.2456,1.166c-0.0283,0-0.0571-0.001-0.0854-0.0029c-0.689-0.0464-1.2095-0.6426-1.1631-1.3311
		c0.2368-3.5059,2.1968-6.6392,5.2426-8.3809c0.5992-0.3432,1.3624-0.1347,1.7056,0.4644
		C51.76752,45.02467,51.55952,45.78787,50.96042,46.13067z M67.15452,47.29337c-0.1498-0.3292-0.3108-0.6556-0.4941-0.976
		c-0.57909-1.0128-1.2798-1.9091-2.0569-2.7089c3.3175-1.0274,5.5121-1.2196,6.1396-0.8294
		C70.74552,43.48537,69.54812,45.13917,67.15452,47.29337z M48.80502,65.11327c3.9216,1.9781,8.7269,2.0177,12.825-0.3259
		c4.0919-2.3401,6.4941-6.4929,6.7839-10.8685c-2.6426,2.1141-5.8359,4.2682-9.3564,6.2816
		C55.50982,62.22917,51.99582,63.90337,48.80502,65.11327z"/>
</g>
<g id="title">
</g>
</svg>
