<?xml version="1.0" encoding="utf-8"?>
<!-- Generator: Adobe Illustrator 24.1.2, SVG Export Plug-In . SVG Version: 6.00 Build 0)  -->
<svg version="1.1" xmlns="http://www.w3.org/2000/svg" xmlns:xlink="http://www.w3.org/1999/xlink" x="0px" y="0px"
	 viewBox="0 0 113.86024 97.09747" style="enable-background:new 0 0 113.86024 97.09747;" xml:space="preserve">
<g id="base-size">
</g>
<g id="icons">
	<path style="fill:#173042;" d="M42.43012,35.99196c0-1.3806-1.1193-2.5-2.5-2.5s-2.5,1.1194-2.5,2.5c0,1.3807,1.1193,2.5,2.5,2.5
		S42.43012,37.37267,42.43012,35.99196z M41.83902,56.99656c0.0307-0.0004,0.0603-0.0046,0.0911-0.0046
		c1.0228,0,1.9859,0.2585,2.8295,0.7117l3.2823-10.7849c-1.0348-0.1546-1.9827-0.5721-2.7749-1.1855L41.83902,56.99656z
		 M41.93012,59.49196c-1.933,0-3.5,1.567-3.5,3.5c0,1.933,1.567,3.5,3.5,3.5c1.933,0,3.5-1.567,3.5-3.5
		C45.43012,61.05896,43.86312,59.49196,41.93012,59.49196z M69.64882,34.46367l0.4723,2.5187c-0.0001,0-0.0001,0-0.0001,0
		l0.6415,3.4211c0.6733-0.2621,1.4026-0.4115,2.16759-0.4115c0.2785,0,0.55051,0.0256,0.819,0.0626l-0.7359-3.9249h-0.0002
		l-0.5194-2.7703c0.5764-0.624,0.9365-1.4511,0.9365-2.3674c0-1.933-1.56699-3.5-3.5-3.5c-1.933,0-3.5,1.567-3.5,3.5
		C66.43011,32.82866,67.84972,34.31786,69.64882,34.46367z M48.37802,31.95416c1.2061,0.4837,1.7791,1.0568,2.263,2.2629
		c0.137,0.3416,0.633,0.3416,0.77,0c0.4839-1.2061,1.0569-1.7792,2.263-2.2629c0.3415-0.1371,0.3415-0.6331,0-0.7701
		c-1.2061-0.4838-1.7791-1.057-2.263-2.263c-0.137-0.3415-0.633-0.3415-0.77,0c-0.4839,1.206-1.0569,1.7792-2.263,2.263
		C48.03652,31.32106,48.03652,31.81706,48.37802,31.95416z M68.93011,58.49196c-1.3807,0-2.5,1.1194-2.5,2.5
		c0,1.3807,1.1193,2.5,2.5,2.5c1.38071,0,2.5-1.1193,2.5-2.5C71.43011,59.61136,70.31082,58.49196,68.93011,58.49196z
		 M72.93011,42.49196c-1.933,0-3.5,1.567-3.5,3.5c0,0.3665,0.07201,0.7129,0.17651,1.0449l-2.19151,1.3148v-0.0001l-4.1579,2.4949
		c0.6937,0.7236,1.2048,1.6199,1.4682,2.6175l2.8101-1.6859h0.00011l4.1879-2.5128c0.3776,0.1393,0.7806,0.2267,1.2066,0.2267
		c1.93301,0,3.5-1.567,3.5-3.5C76.43011,44.05896,74.86312,42.49196,72.93011,42.49196z M58.93012,51.49196
		c-1.933,0-3.5,1.567-3.5,3.5c0,1.933,1.567,3.5,3.5,3.5c1.933,0,3.5-1.567,3.5-3.5
		C62.43012,53.05896,60.86312,51.49196,58.93012,51.49196z M50.76712,46.70166l3.2436,4.8653
		c0.5833-0.8355,1.3743-1.5123,2.2967-1.9631l-2.1293-3.1939l0,0l-2.3286-3.493c0.3652-0.5524,0.5806-1.2131,0.5806-1.925
		c0-0.2195-0.0259-0.4326-0.0646-0.6409l3.6852-1.675l-0.0001-0.0001l9.064-4.12c-0.5935-0.7996-0.9924-1.7493-1.1277-2.783
		l-10.8615,4.937l-2.6017,1.1826c-0.48-0.2475-1.0163-0.4006-1.5936-0.4006c-1.933,0-3.5,1.567-3.5,3.5c0,1.933,1.567,3.5,3.5,3.5
		c0.1168,0,0.2271-0.0232,0.341-0.0344L50.76712,46.70166L50.76712,46.70166z M55.67402,62.18406
		c-1.2061-0.4838-1.7791-1.057-2.263-2.263c-0.137-0.3415-0.633-0.3415-0.77,0c-0.4839,1.206-1.0569,1.7792-2.263,2.263
		c-0.3415,0.137-0.3415,0.633,0,0.7701c1.2061,0.4837,1.7791,1.0568,2.263,2.2629c0.137,0.3416,0.633,0.3416,0.77,0
		c0.4839-1.2061,1.0569-1.7792,2.263-2.2629C56.01552,62.81706,56.01552,62.32106,55.67402,62.18406z"/>
</g>
<g id="title">
</g>
</svg>
