<?xml version="1.0" encoding="utf-8"?>
<!-- Generator: Adobe Illustrator 24.1.2, SVG Export Plug-In . SVG Version: 6.00 Build 0)  -->
<svg version="1.1" xmlns="http://www.w3.org/2000/svg" xmlns:xlink="http://www.w3.org/1999/xlink" x="0px" y="0px"
	 viewBox="0 0 113.86024 97.09747" style="enable-background:new 0 0 113.86024 97.09747;" xml:space="preserve">
<g id="base-size">
</g>
<g id="icons">
	<path style="fill:#173042;" d="M40.80269,51.39037c-1.1046,0-2,0.8954-2,2c0,1.1046,0.8954,2,2,2c1.1046,0,2-0.8954,2-2
		C42.80269,52.28577,41.90729,51.39037,40.80269,51.39037z M69.30269,43.39037c0.8284,0,1.5-0.6715,1.5-1.5
		c0-0.8285-0.6716-1.5-1.5-1.5s-1.5,0.6715-1.5,1.5C67.80269,42.71887,68.47429,43.39037,69.30269,43.39037z M62.25059,33.35237
		c1.2061,0.4839,1.7791,1.0569,2.263,2.263c0.137,0.3415,0.6329,0.3415,0.77,0c0.4838-1.2061,1.0569-1.7791,2.263-2.263
		c0.3414-0.137,0.3414-0.6329,0-0.77c-1.2061-0.4839-1.77921-1.0569-2.263-2.2629c-0.1371-0.3416-0.633-0.3416-0.77,0
		c-0.48389,1.206-1.0569,1.779-2.263,2.2629C61.90899,32.71947,61.90899,33.21537,62.25059,33.35237z M75.26319,58.38677
		l-3.461-2.7597c-0.46291-0.3692-0.7146-0.9425-0.6729-1.5332l0.3113-4.4156c0.0784-1.1115-0.8207-1.9296-1.7996-1.9295
		c-0.3313,0.0001-0.6717,0.0937-0.9864,0.3014l-3.6942,2.4387c-0.2984,0.197-0.6437,0.2978-0.9913,0.2978
		c-0.2281,0-0.4573-0.0434-0.6748-0.1314l-4.1033-1.6607c-0.2287-0.0926-0.4585-0.1351-0.6811-0.1351
		c-1.1225,0-2.0593,1.082-1.7282,2.2816l1.1778,4.267c0.1576,0.5708,0.0242,1.1826-0.3567,1.636l-2.8473,3.3894
		c-0.9593,1.1418-0.1928,2.8878,1.2969,2.9546l4.4221,0.1984c0.5916,0.0265,1.1322,0.3424,1.4457,0.8448l2.3436,3.75529
		c0.3571,0.5723,0.9408,0.847,1.52161,0.847c0.7033,0,1.4023-0.40269,1.68919-1.1673l1.55521-4.1445
		c0.208-0.5544,0.6756-0.971,1.2502-1.1138l4.2958-1.0683C76.02289,61.17967,76.42909,59.31647,75.26319,58.38677z
		 M71.78229,60.05807c-0.7147,0.4593-1.8604,0.4401-2.5593-0.0428c-0.6988-0.4832-0.686-1.247,0.02859-1.7063
		c0.71471-0.4593,1.8604-0.44,2.5593,0.0429C72.50969,58.83497,72.49689,59.59867,71.78229,60.05807z M54.37189,51.80627
		c-0.3604-1.3056-0.0987-2.6697,0.7181-3.7423c0.8125-1.0673,2.091-1.7045,3.4199-1.7045c0.5534,0,1.0981,0.1069,1.6189,0.3176
		l3.7618,1.5225l3.3867-2.2357c0.1114-0.0735,0.2296-0.1318,0.3459-0.1943c-3.9731-4.8803-9.1452-9.9266-12.0988-12.6975
		c-0.6289-0.5901-1.6281,0.0459-1.3607,0.8658c0.3672,1.1254,0.8234,2.5141,1.3379,4.0606
		c-5.0055-3.8722-10.6588-7.1634-16.3907-9.8509c-0.8029-0.3765-1.5605,0.6001-0.9976,1.2851
		c3.3321,4.055,6.4533,8.3113,9.5241,12.5638c-2.4018-1.2395-4.6051-2.303-6.2407-3.0683
		c-0.7812-0.3655-1.5334,0.5493-1.0246,1.2455c2.9632,4.0543,8.8756,12.0525,13.3797,17.5679l1.6998-2.0235L54.37189,51.80627z
		 M47.30269,57.39037c-0.8284,0-1.5,0.6715-1.5,1.5c0,0.8285,0.6716,1.5,1.5,1.5s1.5-0.6715,1.5-1.5
		C48.80269,58.06187,48.13109,57.39037,47.30269,57.39037z"/>
</g>
<g id="title">
</g>
</svg>
