<?xml version="1.0" encoding="utf-8"?>
<!-- Generator: Adobe Illustrator 24.1.2, SVG Export Plug-In . SVG Version: 6.00 Build 0)  -->
<svg version="1.1" xmlns="http://www.w3.org/2000/svg" xmlns:xlink="http://www.w3.org/1999/xlink" x="0px" y="0px"
	 viewBox="0 0 113.86024 97.09747" style="enable-background:new 0 0 113.86024 97.09747;" xml:space="preserve">
<g id="base-size">
</g>
<g id="icons">
	<path style="fill:#173042;" d="M73.95262,42.57262c-0.773-0.5234-1.6502-0.774-2.5184-0.7739
		c-1.4428,0-2.8603,0.6926-3.7301,1.9773c-1.3931,2.0579-0.8543,4.8555,1.2035,6.2485c0.773,0.5235,1.6502,0.7741,2.5184,0.7741
		c1.4428,0,2.8603-0.6928,3.7301-1.9774C76.54922,46.76332,76.01041,43.96582,73.95262,42.57262z M44.95262,48.57262
		c-2.0578-1.393-4.8553-0.8543-6.2485,1.2034c-1.3931,2.0579-0.8543,4.8555,1.2035,6.2485
		c2.0578,1.3932,4.8553,0.8544,6.2485-1.2033C47.54922,52.76332,47.01042,49.96572,44.95262,48.57262z M57.24852,36.28262
		c1.3718,0.9287,3.2368,0.5696,4.1656-0.8023c0.9288-1.3719,0.5695-3.2369-0.8023-4.1657
		c-1.3719-0.9287-3.2369-0.5696-4.1656,0.8023C55.51742,33.48882,55.87662,35.35392,57.24852,36.28262z M50.22002,43.09441
		c0.4292-0.6341,0.9538-1.1783,1.5358-1.6436l-2.3999-2c1.1039-2.0127,0.5357-4.5654-1.4032-5.8782
		c-2.0578-1.393-4.8554-0.8542-6.2486,1.2035c-1.3931,2.0578-0.8543,4.8554,1.2035,6.2484
		c1.2832,0.8688,2.8538,0.9854,4.1924,0.4518l2.7248,2.2706C49.94422,43.52512,50.07582,43.30722,50.22002,43.09441z
		 M53.08962,54.00481l-1.4377,5.3913c-0.8338,0.1907-1.6024,0.6763-2.1197,1.4404c-1.0837,1.6006-0.6646,3.7767,0.936,4.8603
		c1.6006,1.0836,3.7766,0.6645,4.8602-0.9362c1.0369-1.5315,0.6851-3.5791-0.7482-4.7032l1.411-5.2912
		C54.97782,54.70761,53.99442,54.45671,53.08962,54.00481z M65.02711,45.22242l-3.434,0.2289
		c-0.3794-1.0637-1.073-2.0249-2.0799-2.7067c-0.9449-0.6396-2.017-0.946-3.0781-0.946c-1.7634,0.0001-3.4959,0.8467-4.559,2.4168
		c-1.7027,2.5152-1.0441,5.9344,1.4709,7.6373c0.9449,0.6396,2.017,0.9459,3.0781,0.9459c1.7635,0,3.4959-0.8467,4.559-2.4169
		c0.4098-0.6053,0.6756-1.2644,0.8189-1.938l3.4232-0.2281C64.92972,47.25282,64.85992,46.22721,65.02711,45.22242z"/>
</g>
<g id="title">
</g>
</svg>
