<?xml version="1.0" encoding="utf-8"?>
<!-- Generator: Adobe Illustrator 24.1.2, SVG Export Plug-In . SVG Version: 6.00 Build 0)  -->
<svg version="1.1" xmlns="http://www.w3.org/2000/svg" xmlns:xlink="http://www.w3.org/1999/xlink" x="0px" y="0px"
	 viewBox="0 0 113.86024 97.09747" style="enable-background:new 0 0 113.86024 97.09747;" xml:space="preserve">
<g id="base-size">
</g>
<g id="icons">
	<path style="fill:#173042;" d="M69.50132,51.84986c-3.82481-0.3745-7.9076-2.3229-11.1448-5.5606
		c-3.7285-3.7285-5.7147-8.4544-5.6282-12.6827c0.0097-0.4764-0.5845-0.7079-0.8854-0.3383
		c-0.967,1.1879-1.687,2.5066-2.1855,3.8873l-13.9392,8.5266c-0.6571,0.4021-0.9827,1.2346-0.6656,1.9366
		c0.2581,0.5715,0.8075,0.8904,1.3727,0.8904c0.2666,0,0.5371-0.0708,0.7813-0.2202l11.6543-7.129
		c-0.1156,2.8481,0.6785,5.7235,2.3724,8.1638l-11.8963,11.744c-0.5708,0.5636-0.6902,1.4972-0.1725,2.1099
		c0.301,0.3562,0.7242,0.5346,1.148,0.5346c0.3809,0,0.7618-0.144,1.0538-0.4326l14.6712-14.4835
		c0.5364-0.2066,1.1665-0.0982,1.5993,0.3346c0.5859,0.5854,0.5859,1.5356,0,2.1211l-1.5856,1.5855
		c-0.2381,0.2382-0.1824,0.6502,0.1177,0.8028c2.377,1.2086,5.0362,1.6545,7.6242,1.3456l-8.0338,11.5854
		c-0.4537,0.6542-0.4038,1.5848,0.2077,2.0946c0.2846,0.2373,0.6249,0.3497,0.9613,0.3497c0.4756,0,0.9428-0.2251,1.2339-0.645
		l10.0488-14.4912c0.0686-0.099,0.11971-0.2042,0.16171-0.3116c0.4666-0.2436,0.9248-0.5093,1.36629-0.8117
		C70.12222,52.49356,69.96362,51.89507,69.50132,51.84986z M70.26102,33.76757c-3.6378-3.6377-9.0659-4.3821-13.4447-2.248
		c-0.0911,0.0444-0.1678,0.1179-0.2142,0.208c-1.8171,3.53-0.3722,8.9353,3.5058,12.8132c3.4382,3.4385,7.9971,4.9852,11.497,4.021
		c0.111-0.0305,0.2081-0.1039,0.2699-0.2012C74.76092,43.82006,74.22362,37.73027,70.26102,33.76757z M67.18172,36.05997
		c-0.2373,0.3794-0.6445,0.5874-1.0611,0.5874c-0.2265,0-0.45551-0.0611-0.66161-0.19c-1.4424-0.9018-3.1611-1.2104-4.8369-0.8647
		c-0.6758,0.1367-1.3369-0.2969-1.4761-0.9732c-0.1386-0.6762,0.2969-1.3374,0.9732-1.476c2.31-0.4741,4.6758-0.0493,6.665,1.1938
		C67.36972,34.70346,67.54742,35.47446,67.18172,36.05997z"/>
</g>
<g id="title">
</g>
</svg>
