<?xml version="1.0" encoding="utf-8"?>
<!-- Generator: Adobe Illustrator 24.1.2, SVG Export Plug-In . SVG Version: 6.00 Build 0)  -->
<svg version="1.1" xmlns="http://www.w3.org/2000/svg" xmlns:xlink="http://www.w3.org/1999/xlink" x="0px" y="0px"
	 viewBox="0 0 113.86024 97.09747" style="enable-background:new 0 0 113.86024 97.09747;" xml:space="preserve">
<g id="base-size">
</g>
<g id="icons">
	<path style="fill:#173042;" d="M67.1452,33.67886c2.131,0.5805,4.32899-0.6766,4.90939-2.808
		c0.58031-2.1313-0.6767-4.3296-2.80769-4.91c-2.13091-0.5804-4.3289,0.6766-4.9093,2.808
		C63.75719,30.90016,65.01409,33.09846,67.1452,33.67886z M38.71829,61.48175c-1.5983-0.4353-3.2467,0.5075-3.682,2.1057
		c-0.4353,1.5981,0.5075,3.2467,2.1057,3.682c1.5982,0.4353,3.2467-0.5074,3.682-2.1057
		C41.25929,63.56546,40.31649,61.91706,38.71829,61.48175z M59.05429,60.70166c-0.2441,0.2442-0.564,0.3663-0.8838,0.3663
		c-0.3198,0-0.6396-0.1221-0.8838-0.3663c-0.4882-0.4882-0.4882-1.2792,0-1.7675l13.9286-13.9286
		c-0.6625-1.9131-1.6709-3.661-2.96111-5.1669l-5.55099,5.4544c-0.2431,0.2392-0.5595,0.3584-0.8759,0.3584
		c-0.3238,0-0.647-0.125-0.8916-0.3741c-0.4839-0.4922-0.4771-1.2837,0.0156-1.7675l5.53431-5.438
		c-1.5014-1.2823-3.243-2.2842-5.14771-2.9438l-15.0683,15.0678c-0.2441,0.2441-0.5639,0.3662-0.8837,0.3662
		c-0.3199,0-0.6397-0.1221-0.8838-0.3662c-0.4883-0.4883-0.4883-1.2793,0-1.7676l13.9951-13.9947
		c-0.7816-0.1174-1.5753-0.1977-2.3897-0.1977c-8.8365,0-16,7.1635-16,16c0,3.9477,1.4366,7.5552,3.8064,10.3455l11.2552-11.0593
		c0.4917-0.4844,1.2836-0.4771,1.7675,0.0156c0.4839,0.4922,0.4771,1.2837-0.0156,1.7676l-11.2433,11.0476
		c2.8019,2.4142,6.4412,3.883,10.4298,3.883c8.8366,0,16-7.1634,16-16c0-0.8143-0.0802-1.6081-0.1976-2.3897L59.05429,60.70166z"/>
</g>
<g id="title">
</g>
</svg>
