<?xml version="1.0" encoding="utf-8"?>
<!-- Generator: Adobe Illustrator 24.1.2, SVG Export Plug-In . SVG Version: 6.00 Build 0)  -->
<svg version="1.1" xmlns="http://www.w3.org/2000/svg" xmlns:xlink="http://www.w3.org/1999/xlink" x="0px" y="0px"
	 viewBox="0 0 113.86024 97.09747" style="enable-background:new 0 0 113.86024 97.09747;" xml:space="preserve">
<g id="base-size">
</g>
<g id="icons">
	<path style="fill:#173042;" d="M55.89685,59.06857c-0.2081-0.3791-0.6357-0.583-1.0595-0.4976
		c-0.4768,0.096-0.9698,0.1472-1.4749,0.1472c-1.398,0-2.7043-0.3855-3.8237-1.0527c-0.4726-0.2817-1.0793-0.1448-1.3684,0.3234
		l-4.8635,7.8742c-0.7702,1.24699,0.1267,2.85509,1.5923,2.85509h13.133c1.4229,0,2.3254-1.525,1.6406-2.7723L55.89685,59.06857z
		 M73.97935,52.04427c-1.4444-2.3627-4.6316-7.1735-9.2915-12.0104l1.5499-1.5256c1.22079,0.4319,2.6321,0.1706,3.6088-0.8061
		c1.3545-1.3544,1.3545-3.5506,0-4.9051c-1.3546-1.3545-3.5507-1.3545-4.9052,0c-0.9691,0.969-1.2322,2.3657-0.8146,3.5801
		l-1.5715,1.5466c-4.7616-4.5032-9.5833-7.7463-11.9544-9.2322c-0.9044-0.5669-2.1027-0.3428-2.7352,0.5171
		c-3.9457,5.3635-3.2598,13.4622,1.5925,19.812c-0.3682,0.6524-0.5957,1.3949-0.5957,2.1975c0,2.4853,2.0147,4.5,4.5,4.5
		c1.0183,0,1.9471-0.351,2.7011-0.9214c5.8888,3.3366,12.6918,3.4344,17.3884-0.035
		C74.30225,54.13377,74.53075,52.94627,73.97935,52.04427z M52.12805,45.87397c-0.2075,0.1309-0.438,0.1929-0.6665,0.1929
		c-0.4146,0-0.8203-0.2061-1.0581-0.5826c-2.1421-3.394-2.7622-7.2617-1.7002-10.6118c0.2085-0.6587,0.9136-1.0229,1.5688-0.8139
		c0.6582,0.2085,1.023,0.9111,0.814,1.5688c-0.8262,2.6079-0.291,5.7935,1.4316,8.522
		C52.88585,44.73336,52.71155,45.50526,52.12805,45.87397z"/>
</g>
<g id="title">
</g>
</svg>
