<?xml version="1.0" encoding="utf-8"?>
<!-- Generator: Adobe Illustrator 24.1.2, SVG Export Plug-In . SVG Version: 6.00 Build 0)  -->
<svg version="1.1" xmlns="http://www.w3.org/2000/svg" xmlns:xlink="http://www.w3.org/1999/xlink" x="0px" y="0px"
	 viewBox="0 0 113.86024 97.09747" style="enable-background:new 0 0 113.86024 97.09747;" xml:space="preserve">
<g id="base-size">
</g>
<g id="icons">
	<path style="fill:#173042;" d="M67.50464,62.25998c-0.9741-0.3908-1.4369-0.8537-1.8277-1.8278
		c-0.11069-0.2759-0.5112-0.2759-0.622,0c-0.3908,0.9741-0.8536,1.437-1.8277,1.8278c-0.2759,0.1107-0.2759,0.5112,0,0.6219
		c0.9741,0.3909,1.4369,0.8537,1.8277,1.8278c0.1108,0.27589,0.51131,0.27589,0.622,0c0.3908-0.9741,0.8536-1.4369,1.8277-1.8278
		C67.78054,62.77118,67.78054,62.37068,67.50464,62.25998z M39.06434,35.10118c1.6612,0.6665,2.4505,1.4558,3.117,3.1169
		c0.1887,0.4705,0.8718,0.4705,1.0605,0c0.6665-1.6611,1.4558-2.4504,3.117-3.1169c0.4704-0.1888,0.4704-0.8719,0-1.0606
		c-1.6612-0.6665-2.4505-1.4558-3.117-3.1169c-0.1887-0.4704-0.8718-0.4704-1.0605,0c-0.6665,1.6611-1.4558,2.4504-3.117,3.1169
		C38.59394,34.22928,38.59394,34.91238,39.06434,35.10118z M50.08914,29.38348c0.8824,0.354,1.3017,0.7733,1.6557,1.6557
		c0.1002,0.2497,0.463,0.2497,0.5632,0c0.3541-0.8824,0.7733-1.3017,1.6557-1.6557c0.2499-0.1002,0.2499-0.463,0-0.5633
		c-0.8824-0.354-1.3016-0.7732-1.6557-1.6556c-0.1002-0.25-0.463-0.25-0.5632,0c-0.354,0.8824-0.7733,1.3016-1.6557,1.6556
		C49.83934,28.92048,49.83934,29.28328,50.08914,29.38348z M69.71164,47.97708c-2.2092,0-4,1.7909-4,4c0,2.2093,1.7908,4,4,4
		c2.20911,0,4-1.7907,4-4C73.71164,49.76798,71.92075,47.97708,69.71164,47.97708z M50.33024,48.20758
		c-0.6411-0.5268-1.5864-0.4321-2.1108,0.2085c-3.274,3.9917-4.2056,6.8477-2.7691,8.4893c0.5811,0.664,1.3921,0.9433,2.3467,0.9433
		c4.7017-0.0005,12.8633-6.7846,13.9482-7.7046c4.3833-3.7168,9.5948-9.2959,9.8545-12.7881
		c0.07961-1.0688-0.3061-1.7534-0.644-2.1391c-2.3477-2.6831-8.5923,1.0532-12.106,3.5176
		c-0.6782,0.4755-0.8422,1.4111-0.3667,2.0893c0.4751,0.6778,1.4107,0.8423,2.0894,0.3667
		c4.4238-3.1025,7.1528-3.9194,8.0361-3.9287c-0.1704,1.3755-2.9809,5.6572-8.8037,10.5942
		c-5.8696,4.9771-10.582,7.0625-11.9951,7.0103c0.0996-0.5801,0.6895-2.061,2.729-4.5479
		C51.06414,49.67778,50.97084,48.73298,50.33024,48.20758z M79.01924,29.29158c-4.5796-5.3057-17.1114-1.8648-28.5274,7.8296
		c-7.9375,6.7412-13.3672,14.9848-13.833,21.0019c-0.1806,2.3326,0.3858,4.3326,1.6387,5.7832
		c1.4477,1.6778,3.7051,2.4854,6.4878,2.4854c5.1777,0,12.1709-2.7984,19.1328-7.9976c0.6636-0.4956,0.8003-1.4355,0.3042-2.0991
		c-0.4956-0.6641-1.4356-0.7993-2.0991-0.3042c-10.1626,7.5874-18.9405,8.9834-21.5552,5.9556
		c-0.7285-0.8443-1.0376-2.0528-0.9185-3.5918c0.4014-5.1792,5.5386-12.7935,12.7847-18.9468
		c8.5557-7.2671,20.6475-12.4028,24.314-8.1558c1.96629,2.2779,0.768,7.3575-3.0523,12.9405
		c-0.4677,0.6836-0.2929,1.6172,0.39069,2.0849c0.6855,0.4678,1.6176,0.2925,2.0849-0.3906
		C80.92594,38.93808,81.99094,32.73448,79.01924,29.29158z M56.71164,44.47708c0-1.3806-1.1193-2.5-2.5-2.5
		c-1.3808,0-2.5,1.1194-2.5,2.5c0,1.3808,1.1192,2.5,2.5,2.5C55.59234,46.97708,56.71164,45.85788,56.71164,44.47708z"/>
</g>
<g id="title">
</g>
</svg>
