<?xml version="1.0" encoding="utf-8"?>
<!-- Generator: Adobe Illustrator 24.1.2, SVG Export Plug-In . SVG Version: 6.00 Build 0)  -->
<svg version="1.1" xmlns="http://www.w3.org/2000/svg" xmlns:xlink="http://www.w3.org/1999/xlink" x="0px" y="0px"
	 viewBox="0 0 113.86024 97.09747" style="enable-background:new 0 0 113.86024 97.09747;" xml:space="preserve">
<g id="base-size">
</g>
<g id="icons">
	<path style="fill:#173042;" d="M43.6979,57.45686c-0.1529-0.1529-0.3982-0.1567-0.5537-0.0065
		c-0.3008,0.2902-0.7148,0.6986-0.8626,0.8464c-4.8898,4.8898-5.0272,11.1395-5.0272,11.1395s6.2497-0.13741,11.1395-5.0273
		c0.1477-0.14771,0.5562-0.5618,0.8464-0.8626c0.1502-0.1555,0.1463-0.4006-0.0066-0.5537L43.6979,57.45686z M75.6199,30.89895
		c-0.8138-0.8139-1.987-1.1556-3.1105-0.9058l-2.1655,0.4812c-3.5259,0.7835-6.7553,2.5562-9.3093,5.1102l-0.5989,0.5989
		c-2.7308,2.7308-6.3276,4.4252-10.1721,4.7921l-5.8436,0.5574c-0.4627,0.0442-0.8955,0.248-1.2242,0.5768l-1.5851,1.5851
		c-0.7811,0.781-0.7811,2.0473,0,2.8283l6.2662,6.2664c-0.6083,0.3525-1.2047,0.6882-1.8581,1.0434
		c-0.4901,0.2664-0.6632,0.8841-0.3953,1.3733c1.6957,3.0966,3.2996,4.7005,6.396,6.396c0.4893,0.2681,1.107,0.095,1.3734-0.3952
		c0.3552-0.6533,0.6908-1.2498,1.0434-1.8582l6.2663,6.2664c0.781,0.781,2.0473,0.781,2.8284,0l1.5607-1.56081
		c0.3434-0.34349,0.5501-0.80009,0.5816-1.2848l0.4285-6.6104c0.2611-4.0272,1.9788-7.8216,4.8323-10.6753h0.0001
		c2.5539-2.5539,4.3266-5.7833,5.1102-9.3092l0.4812-2.1655C76.7753,32.88586,76.43369,31.71265,75.6199,30.89895z
		 M70.6039,41.58675l-1.0418,1.0419c-0.3907,0.3906-1.0466,0.1478-1.1037-0.4016c-0.0976-0.9387-0.5758-1.9436-1.3995-2.7673
		c-0.8236-0.8237-1.82861-1.3019-2.7673-1.3995c-0.5494-0.0571-0.7922-0.7131-0.4016-1.1037l1.0419-1.0418
		c1.1747-1.1748,3.3968-0.8574,4.963,0.709C71.4612,38.19006,71.77869,40.41206,70.6039,41.58675z"/>
</g>
<g id="title">
</g>
</svg>
